<svg width="326" height="48" viewBox="0 0 326 48" fill="none" xmlns="http://www.w3.org/2000/svg">
<path d="M46.9743 25.1636C46.6241 32.5387 42.9678 39.3396 37.0631 43.5996C31.1562 47.8619 23.6584 49.1104 16.7345 46.9827C9.80832 44.8573 4.22939 39.5934 1.60364 32.7145C-1.02217 25.8333 -0.398441 18.1025 3.29167 11.7517C6.98177 5.40097 13.3296 1.13858 20.4993 0.196901C27.6714 -0.746968 34.8689 1.73615 40.014 6.92397L40.1586 7.16397C40.258 7.27474 40.3439 7.39935 40.4117 7.5332C40.4298 7.68089 40.4298 7.82858 40.4117 7.97627C40.4207 8.06166 40.4207 8.14935 40.4117 8.23473C40.3981 8.4032 40.3688 8.57165 40.3213 8.73319V8.91781C40.2467 9.06781 40.1541 9.21088 40.0501 9.34242C40.0117 9.40704 39.9711 9.46934 39.9236 9.52704L24.666 25.1085C24.3271 25.457 23.8638 25.6554 23.3825 25.6554C22.9011 25.6554 22.4379 25.457 22.0989 25.1085C21.7577 24.7624 21.5634 24.2893 21.5634 23.7977C21.5634 23.3062 21.7577 22.8331 22.0989 22.4869L24.7564 19.7731C25.3123 19.2792 25.5202 18.49 25.2806 17.7792C25.0117 17.0892 24.3632 16.63 23.6355 16.6161H23.4728C20.6482 16.6069 18.0767 18.28 16.8902 20.8969C15.7039 23.5138 16.1174 26.5968 17.95 28.7913C19.7826 30.9858 22.6999 31.8905 25.416 31.1082C28.1344 30.3236 30.1568 27.9952 30.5952 25.145C30.7444 24.125 31.6754 23.4235 32.6742 23.5758C33.673 23.7282 34.3599 24.6789 34.2108 25.6989C33.7272 28.8881 31.9036 31.7059 29.2191 33.409C26.5323 35.1144 23.2537 35.5368 20.2392 34.5675C17.2225 33.6006 14.7707 31.3367 13.5259 28.3691C12.2785 25.4015 12.3621 22.0279 13.7518 19.129C15.1438 16.2282 17.7018 14.0936 20.7614 13.2813C23.8209 12.469 27.075 13.0598 29.6735 14.899L33.8314 10.6714C34.4302 10.0483 34.7104 9.176 34.5907 8.31059C34.4709 7.44517 33.9625 6.68598 33.2168 6.25903C28.1369 3.35594 22.0693 2.87133 16.6101 4.93211C11.1507 6.99288 6.84818 11.3939 4.84141 16.9714C2.8325 22.549 3.31612 28.7477 6.16788 33.9282C9.01965 39.1112 13.9526 42.7572 19.6628 43.9044C25.3731 45.0537 31.2892 43.5883 35.8512 39.8983C40.4135 36.2083 43.1638 30.6605 43.3761 24.7209C43.4665 22.2886 43.1163 19.8609 42.3457 17.5579C42.0271 16.5887 42.5355 15.5386 43.4847 15.2132C44.4338 14.8878 45.4619 15.4071 45.7806 16.3763C46.7071 19.2056 47.1115 22.1848 46.9737 25.164L46.9743 25.1636Z" fill="#AF66E8"/>
<path d="M83.75 38.35C81.86 38.35 80.0867 38 78.43 37.3C76.7967 36.5767 75.3617 35.5733 74.125 34.29C72.9117 33.0067 71.955 31.5133 71.255 29.81C70.555 28.1067 70.205 26.275 70.205 24.315C70.205 22.3783 70.5433 20.57 71.22 18.89C71.92 17.1867 72.8883 15.6933 74.125 14.41C75.3617 13.1267 76.7967 12.1233 78.43 11.4C80.0633 10.6767 81.8367 10.315 83.75 10.315C85.5 10.315 87.04 10.56 88.37 11.05C89.7 11.5167 91.0183 12.2867 92.325 13.36C92.5117 13.5 92.64 13.6633 92.71 13.85C92.8033 14.0133 92.8383 14.1883 92.815 14.375C92.815 14.5383 92.78 14.7017 92.71 14.865C92.6867 15.215 92.535 15.495 92.255 15.705C91.9983 15.915 91.6833 16.0317 91.31 16.055C90.96 16.055 90.61 15.9267 90.26 15.67C89.3733 14.9 88.44 14.3167 87.46 13.92C86.48 13.5233 85.2433 13.325 83.75 13.325C82.3267 13.325 80.985 13.6167 79.725 14.2C78.4883 14.7833 77.3917 15.5767 76.435 16.58C75.4783 17.5833 74.7317 18.75 74.195 20.08C73.6583 21.41 73.39 22.8217 73.39 24.315C73.39 25.855 73.6583 27.29 74.195 28.62C74.7317 29.9267 75.4783 31.0933 76.435 32.12C77.3917 33.1233 78.4883 33.905 79.725 34.465C80.985 35.025 82.3267 35.305 83.75 35.305C84.9867 35.305 86.1533 35.1067 87.25 34.71C88.3467 34.29 89.385 33.7067 90.365 32.96C90.7383 32.68 91.1117 32.5633 91.485 32.61C91.8583 32.6333 92.1733 32.785 92.43 33.065C92.6867 33.3217 92.815 33.6833 92.815 34.15C92.815 34.36 92.78 34.57 92.71 34.78C92.64 34.9667 92.5117 35.1417 92.325 35.305C91.1117 36.355 89.77 37.125 88.3 37.615C86.8533 38.105 85.3367 38.35 83.75 38.35ZM105.533 38.14C103.666 38.14 101.998 37.7317 100.528 36.915C99.0815 36.075 97.9381 34.9317 97.0981 33.485C96.2815 32.015 95.8731 30.335 95.8731 28.445C95.8731 26.5317 96.2815 24.8517 97.0981 23.405C97.9381 21.935 99.0815 20.7917 100.528 19.975C101.998 19.135 103.666 18.715 105.533 18.715C107.4 18.715 109.056 19.135 110.503 19.975C111.973 20.7917 113.116 21.935 113.933 23.405C114.773 24.8517 115.205 26.5317 115.228 28.445C115.228 30.335 114.808 32.015 113.968 33.485C113.128 34.9317 111.985 36.075 110.538 36.915C109.091 37.7317 107.423 38.14 105.533 38.14ZM105.533 35.27C106.816 35.27 107.948 34.9783 108.928 34.395C109.908 33.8117 110.678 33.0067 111.238 31.98C111.798 30.9533 112.078 29.775 112.078 28.445C112.078 27.115 111.798 25.9367 111.238 24.91C110.678 23.86 109.908 23.0433 108.928 22.46C107.948 21.8767 106.816 21.585 105.533 21.585C104.273 21.585 103.141 21.8767 102.138 22.46C101.158 23.0433 100.388 23.86 99.8281 24.91C99.2681 25.9367 98.9881 27.115 98.9881 28.445C98.9881 29.775 99.2681 30.9533 99.8281 31.98C100.388 33.0067 101.158 33.8117 102.138 34.395C103.141 34.9783 104.273 35.27 105.533 35.27ZM127.365 38.14C125.825 38.14 124.367 37.9067 122.99 37.44C121.614 36.95 120.529 36.285 119.735 35.445C119.432 35.095 119.304 34.71 119.35 34.29C119.397 33.87 119.607 33.5083 119.98 33.205C120.377 32.9017 120.785 32.7733 121.205 32.82C121.625 32.8667 121.975 33.0533 122.255 33.38C122.722 33.8933 123.399 34.3367 124.285 34.71C125.195 35.0833 126.187 35.27 127.26 35.27C128.777 35.27 129.897 35.025 130.62 34.535C131.367 34.0217 131.752 33.3917 131.775 32.645C131.775 31.875 131.414 31.2333 130.69 30.72C129.967 30.1833 128.695 29.7633 126.875 29.46C124.519 29.0167 122.804 28.3283 121.73 27.395C120.657 26.4617 120.12 25.33 120.12 24C120.12 22.81 120.447 21.83 121.1 21.06C121.777 20.2667 122.652 19.6833 123.725 19.31C124.822 18.9133 125.977 18.715 127.19 18.715C128.73 18.715 130.084 18.9717 131.25 19.485C132.417 19.975 133.35 20.6633 134.05 21.55C134.354 21.9 134.482 22.2617 134.435 22.635C134.412 23.0083 134.225 23.3233 133.875 23.58C133.525 23.79 133.117 23.86 132.65 23.79C132.207 23.72 131.834 23.5217 131.53 23.195C130.947 22.5883 130.294 22.1683 129.57 21.935C128.87 21.6783 128.054 21.55 127.12 21.55C126 21.55 125.067 21.76 124.32 22.18C123.597 22.6 123.235 23.1717 123.235 23.895C123.235 24.3617 123.352 24.77 123.585 25.12C123.842 25.47 124.309 25.7967 124.985 26.1C125.662 26.38 126.63 26.6367 127.89 26.87C129.64 27.1967 131.017 27.6283 132.02 28.165C133.047 28.7017 133.782 29.3317 134.225 30.055C134.669 30.7783 134.89 31.595 134.89 32.505C134.89 33.5783 134.587 34.5467 133.98 35.41C133.397 36.25 132.545 36.915 131.425 37.405C130.305 37.895 128.952 38.14 127.365 38.14ZM164.851 38.035C164.384 38.035 163.999 37.8833 163.696 37.58C163.393 37.2767 163.241 36.8917 163.241 36.425V26.38C163.241 24.84 162.844 23.6617 162.051 22.845C161.281 22.0283 160.278 21.62 159.041 21.62C157.734 21.62 156.661 22.075 155.821 22.985C155.004 23.8717 154.596 25.0267 154.596 26.45H151.866C151.889 24.91 152.228 23.5567 152.881 22.39C153.534 21.2233 154.444 20.3133 155.611 19.66C156.778 19.0067 158.096 18.68 159.566 18.68C160.919 18.68 162.109 18.9833 163.136 19.59C164.186 20.1967 165.003 21.0833 165.586 22.25C166.169 23.3933 166.461 24.77 166.461 26.38V36.425C166.461 36.8917 166.309 37.2767 166.006 37.58C165.726 37.8833 165.341 38.035 164.851 38.035ZM141.051 38.035C140.584 38.035 140.199 37.8833 139.896 37.58C139.593 37.2767 139.441 36.8917 139.441 36.425V20.5C139.441 20.01 139.593 19.625 139.896 19.345C140.199 19.0417 140.584 18.89 141.051 18.89C141.541 18.89 141.926 19.0417 142.206 19.345C142.509 19.625 142.661 20.01 142.661 20.5V36.425C142.661 36.8917 142.509 37.2767 142.206 37.58C141.926 37.8833 141.541 38.035 141.051 38.035ZM152.986 38.035C152.519 38.035 152.134 37.8833 151.831 37.58C151.528 37.2767 151.376 36.8917 151.376 36.425V26.38C151.376 24.84 150.979 23.6617 150.186 22.845C149.416 22.0283 148.413 21.62 147.176 21.62C145.869 21.62 144.784 22.0633 143.921 22.95C143.081 23.8367 142.661 24.9683 142.661 26.345H140.561C140.584 24.8517 140.899 23.5333 141.506 22.39C142.136 21.2233 142.988 20.3133 144.061 19.66C145.134 19.0067 146.348 18.68 147.701 18.68C149.054 18.68 150.244 18.9833 151.271 19.59C152.321 20.1967 153.138 21.0833 153.721 22.25C154.304 23.3933 154.596 24.77 154.596 26.38V36.425C154.596 36.8917 154.444 37.2767 154.141 37.58C153.861 37.8833 153.476 38.035 152.986 38.035ZM178.55 38C178.177 38 177.839 37.8833 177.535 37.65C177.255 37.4167 177.045 37.09 176.905 36.67L169.835 12.975C169.625 12.275 169.637 11.715 169.87 11.295C170.127 10.875 170.547 10.665 171.13 10.665C171.48 10.665 171.795 10.77 172.075 10.98C172.379 11.1667 172.6 11.4817 172.74 11.925L178.97 33.73H178.2L184.045 12.275C184.139 11.9483 184.325 11.6917 184.605 11.505C184.909 11.295 185.247 11.19 185.62 11.19C185.947 11.19 186.262 11.2833 186.565 11.47C186.892 11.6333 187.09 11.9017 187.16 12.275L193.04 33.73H192.305L198.605 11.75C198.815 11.0267 199.352 10.665 200.215 10.665C200.799 10.665 201.184 10.8983 201.37 11.365C201.557 11.8083 201.569 12.345 201.405 12.975L194.335 36.635C194.195 37.055 193.974 37.3933 193.67 37.65C193.39 37.8833 193.064 38 192.69 38C192.294 38 191.944 37.8717 191.64 37.615C191.36 37.3583 191.162 37.0433 191.045 36.67L185.235 14.725H186.075L180.23 36.635C180.09 37.055 179.869 37.3933 179.565 37.65C179.285 37.8833 178.947 38 178.55 38ZM209.53 38.14C207.78 38.14 206.216 37.72 204.84 36.88C203.463 36.04 202.378 34.885 201.585 33.415C200.791 31.945 200.395 30.2883 200.395 28.445C200.395 26.5783 200.815 24.9217 201.655 23.475C202.518 22.005 203.673 20.85 205.12 20.01C206.59 19.1467 208.235 18.715 210.055 18.715C211.898 18.715 213.543 19.1467 214.99 20.01C216.436 20.85 217.58 22.005 218.42 23.475C219.283 24.945 219.726 26.6017 219.75 28.445L218.49 28.76C218.49 30.5333 218.093 32.1317 217.3 33.555C216.506 34.9783 215.433 36.0983 214.08 36.915C212.75 37.7317 211.233 38.14 209.53 38.14ZM210.055 35.27C211.315 35.27 212.435 34.9783 213.415 34.395C214.395 33.7883 215.165 32.9717 215.725 31.945C216.308 30.895 216.6 29.7283 216.6 28.445C216.6 27.1383 216.308 25.9717 215.725 24.945C215.165 23.895 214.395 23.0783 213.415 22.495C212.435 21.8883 211.315 21.585 210.055 21.585C208.841 21.585 207.733 21.8883 206.73 22.495C205.726 23.0783 204.933 23.895 204.35 24.945C203.79 25.9717 203.51 27.1383 203.51 28.445C203.51 29.7283 203.79 30.895 204.35 31.945C204.933 32.9717 205.726 33.7883 206.73 34.395C207.733 34.9783 208.841 35.27 210.055 35.27ZM218.105 38.035C217.638 38.035 217.253 37.8833 216.95 37.58C216.646 37.2767 216.495 36.8917 216.495 36.425V30.825L217.16 27.465L219.75 28.445V36.425C219.75 36.8917 219.586 37.2767 219.26 37.58C218.956 37.8833 218.571 38.035 218.105 38.035ZM241.302 38.035C240.835 38.035 240.439 37.8833 240.112 37.58C239.809 37.2533 239.657 36.8683 239.657 36.425V27.605C239.657 26.2283 239.4 25.1083 238.887 24.245C238.374 23.3583 237.685 22.705 236.822 22.285C235.959 21.8417 234.967 21.62 233.847 21.62C232.797 21.62 231.852 21.83 231.012 22.25C230.172 22.67 229.495 23.23 228.982 23.93C228.492 24.63 228.247 25.435 228.247 26.345H226.147C226.17 24.875 226.544 23.5683 227.267 22.425C227.99 21.2583 228.97 20.3483 230.207 19.695C231.444 19.0183 232.832 18.68 234.372 18.68C236.005 18.68 237.464 19.03 238.747 19.73C240.03 20.4067 241.045 21.41 241.792 22.74C242.539 24.07 242.912 25.6917 242.912 27.605V36.425C242.912 36.8683 242.749 37.2533 242.422 37.58C242.119 37.8833 241.745 38.035 241.302 38.035ZM226.637 38.035C226.17 38.035 225.785 37.8833 225.482 37.58C225.179 37.2767 225.027 36.8917 225.027 36.425V20.465C225.027 19.975 225.179 19.59 225.482 19.31C225.785 19.0067 226.17 18.855 226.637 18.855C227.127 18.855 227.512 19.0067 227.792 19.31C228.095 19.59 228.247 19.975 228.247 20.465V36.425C228.247 36.8917 228.095 37.2767 227.792 37.58C227.512 37.8833 227.127 38.035 226.637 38.035ZM257.496 38.14C255.676 38.14 254.031 37.72 252.561 36.88C251.114 36.0167 249.959 34.85 249.096 33.38C248.256 31.91 247.836 30.2533 247.836 28.41C247.836 26.5667 248.233 24.9217 249.026 23.475C249.819 22.005 250.904 20.85 252.281 20.01C253.658 19.1467 255.221 18.715 256.971 18.715C258.418 18.715 259.736 19.0183 260.926 19.625C262.139 20.2317 263.143 21.0483 263.936 22.075V12.275C263.936 11.785 264.088 11.4 264.391 11.12C264.694 10.8167 265.079 10.665 265.546 10.665C266.036 10.665 266.433 10.8167 266.736 11.12C267.039 11.4 267.191 11.785 267.191 12.275V28.48C267.168 30.3 266.724 31.945 265.861 33.415C265.021 34.885 263.866 36.04 262.396 36.88C260.949 37.72 259.316 38.14 257.496 38.14ZM257.496 35.27C258.756 35.27 259.876 34.9783 260.856 34.395C261.836 33.7883 262.606 32.9717 263.166 31.945C263.749 30.895 264.041 29.7167 264.041 28.41C264.041 27.1033 263.749 25.9367 263.166 24.91C262.606 23.8833 261.836 23.0783 260.856 22.495C259.876 21.8883 258.756 21.585 257.496 21.585C256.283 21.585 255.174 21.8883 254.171 22.495C253.168 23.0783 252.374 23.8833 251.791 24.91C251.231 25.9367 250.951 27.1033 250.951 28.41C250.951 29.7167 251.231 30.895 251.791 31.945C252.374 32.9717 253.168 33.7883 254.171 34.395C255.174 34.9783 256.283 35.27 257.496 35.27ZM282.384 38.14C280.447 38.14 278.732 37.7317 277.239 36.915C275.769 36.075 274.614 34.9317 273.774 33.485C272.934 32.015 272.514 30.335 272.514 28.445C272.514 26.5317 272.91 24.8517 273.704 23.405C274.497 21.935 275.594 20.7917 276.994 19.975C278.394 19.135 280.015 18.715 281.859 18.715C283.655 18.715 285.207 19.1233 286.514 19.94C287.82 20.7333 288.824 21.8417 289.524 23.265C290.224 24.665 290.574 26.2867 290.574 28.13C290.574 28.5267 290.434 28.865 290.154 29.145C289.897 29.4017 289.547 29.53 289.104 29.53H274.719V26.94H289.139L287.704 27.955C287.68 26.7183 287.435 25.61 286.969 24.63C286.502 23.65 285.837 22.88 284.974 22.32C284.11 21.76 283.072 21.48 281.859 21.48C280.529 21.48 279.374 21.7833 278.394 22.39C277.437 22.9967 276.702 23.825 276.189 24.875C275.675 25.925 275.419 27.115 275.419 28.445C275.419 29.775 275.71 30.965 276.294 32.015C276.9 33.0417 277.717 33.8583 278.744 34.465C279.794 35.0717 281.007 35.375 282.384 35.375C283.13 35.375 283.9 35.235 284.694 34.955C285.51 34.675 286.152 34.3483 286.619 33.975C286.945 33.7183 287.295 33.59 287.669 33.59C288.042 33.5667 288.369 33.6717 288.649 33.905C288.999 34.2317 289.185 34.5933 289.209 34.99C289.232 35.3633 289.069 35.69 288.719 35.97C287.925 36.6 286.934 37.125 285.744 37.545C284.577 37.9417 283.457 38.14 282.384 38.14ZM296.599 26.1C296.646 24.6767 297.008 23.405 297.684 22.285C298.384 21.165 299.306 20.2783 300.449 19.625C301.593 18.9717 302.853 18.645 304.229 18.645C305.513 18.645 306.469 18.8433 307.099 19.24C307.753 19.6367 307.998 20.1383 307.834 20.745C307.764 21.095 307.624 21.3517 307.414 21.515C307.204 21.655 306.959 21.7367 306.679 21.76C306.399 21.76 306.096 21.7367 305.769 21.69C304.346 21.4567 303.074 21.4917 301.954 21.795C300.834 22.0983 299.948 22.6233 299.294 23.37C298.641 24.1167 298.314 25.0267 298.314 26.1H296.599ZM296.704 38C296.214 38 295.829 37.8717 295.549 37.615C295.269 37.335 295.129 36.9383 295.129 36.425V20.43C295.129 19.94 295.269 19.555 295.549 19.275C295.829 18.995 296.214 18.855 296.704 18.855C297.241 18.855 297.638 18.995 297.894 19.275C298.174 19.5317 298.314 19.9167 298.314 20.43V36.425C298.314 36.915 298.174 37.3 297.894 37.58C297.638 37.86 297.241 38 296.704 38Z" fill="#E2BDFF"/>
</svg>
