<svg width="16" height="9" viewBox="0 0 16 9" fill="none" xmlns="http://www.w3.org/2000/svg">
<path d="M8.14395 8.99367C8.45942 8.96166 8.75651 8.82722 8.9954 8.61276L15.4272 2.85104C15.7519 2.57896 15.9571 2.18204 15.9938 1.75311C16.0306 1.32098 15.902 0.892053 15.6324 0.562355C15.3629 0.232656 14.977 0.0309958 14.5635 0.00538818C14.15 -0.0202195 13.7427 0.130225 13.4364 0.421512L8 5.29337L2.56358 0.421512C2.2573 0.130225 1.84995 -0.0202195 1.43648 0.00218722C1.023 0.0309958 0.637091 0.232656 0.367567 0.562355C0.0980428 0.892053 -0.0305937 1.32098 0.00615958 1.75311C0.0429129 2.18524 0.248119 2.58216 0.572773 2.85104L7.0046 8.61276C7.32006 8.89444 7.73048 9.03208 8.14395 8.99367Z" fill="#8E8E8E"/>
</svg>
