<svg width="25" height="25" viewBox="0 0 25 25" fill="none" xmlns="http://www.w3.org/2000/svg">
<path d="M13.7504 6.25057C13.7504 5.56036 13.1902 5.00021 12.5 5.00021C11.8098 5.00021 11.2496 5.56036 11.2496 6.25057V12.5C11.2496 12.9734 11.518 13.4058 11.941 13.6179L16.9413 16.1174C17.5588 16.4268 18.3088 16.176 18.6181 15.5585C18.9263 14.9409 18.6767 14.1909 18.0592 13.8816L13.7504 11.7277L13.7504 6.25057Z" fill="#D2D2D2"/>
<path fill-rule="evenodd" clip-rule="evenodd" d="M12.5 0C5.59662 0 0 5.59662 0 12.5C0 19.4034 5.59662 25 12.5 25C19.4034 25 25 19.4034 25 12.5C25 5.59662 19.4034 0 12.5 0ZM2.50072 12.5C2.50072 6.97718 6.97718 2.50072 12.5 2.50072C18.0228 2.50072 22.4993 6.97718 22.4993 12.5C22.4993 18.0228 18.0228 22.4993 12.5 22.4993C6.97718 22.4993 2.50072 18.0228 2.50072 12.5Z" fill="#D2D2D2"/>
</svg>
