<svg width="18" height="27" viewBox="0 0 18 27" fill="none" xmlns="http://www.w3.org/2000/svg">
<path d="M16.4058 24.1257C16.838 23.453 17.1159 22.8109 17.3321 22.2605C19.3082 17.1234 16.2823 12.4451 16.1588 12.2922C16.0044 17.0011 12.7623 18.1937 12.5771 18.2548C12.7006 18.1019 15.2016 15.0136 14.9546 8.98981C14.7045 3.18007 9.51721 0.305776 8.93056 0C9.42459 0.305776 9.64072 1.43715 9.64072 1.43715C10.5361 5.44281 5.75028 9.20385 5.75028 9.20385C-6.78558 20.8233 5.04012 26.8471 5.31801 27C5.1945 26.786 1.39669 19.2945 7.88076 15.1359C7.84988 15.2582 7.13972 17.2763 10.1965 20.9456C10.1965 20.9456 11.6786 22.8414 11.0302 25.7157C11.1228 25.6546 13.0371 24.4621 12.7901 21.6489C12.9136 21.7712 14.9206 24.3703 13.7164 26.9694C13.8708 26.8777 15.7851 25.2877 16.4027 24.1257H16.4058Z" fill="#D2D2D2"/>
</svg>
