<svg width="23" height="24" viewBox="0 0 23 24" fill="none" xmlns="http://www.w3.org/2000/svg">
<path d="M10.4695 19.1981C11.9077 19.1981 13.3294 18.9044 14.6381 18.3341L18.3327 23.3213C18.8672 24.0447 19.9151 24.2165 20.6727 23.7072C21.4304 23.1995 21.6124 22.2011 21.0778 21.4777L17.4209 16.5389C19.6954 14.4672 20.8236 11.5034 20.4727 8.52404C20.1201 5.54618 18.3277 2.89493 15.6252 1.35747C12.9243 -0.17992 9.62494 -0.425179 6.70605 0.691884C3.78547 1.80743 1.5815 4.16034 0.746932 7.05053C-0.0894013 9.94092 0.540309 13.036 2.44911 15.4202C4.35628 17.8028 7.32261 19.2011 10.4695 19.198L10.4695 19.1981ZM10.4695 3.19953C12.2504 3.19953 13.9591 3.87447 15.2184 5.07437C16.4776 6.27426 17.1862 7.90224 17.1862 9.59877C17.1862 11.2953 16.4778 12.9235 15.2184 14.1232C13.9589 15.3229 12.2502 15.998 10.4695 15.998C8.68885 15.998 6.97991 15.3231 5.72071 14.1232C4.46151 12.9233 3.75288 11.2953 3.75288 9.59877C3.75288 7.90224 4.4613 6.27406 5.72071 5.07437C6.98012 3.87467 8.68885 3.19953 10.4695 3.19953Z" fill="#8E8E8E"/>
</svg>
