<svg width="21" height="21" viewBox="0 0 21 21" fill="none" xmlns="http://www.w3.org/2000/svg">
<circle cx="10.5" cy="10.5" r="10.5" fill="#691DA4"/>
<path d="M15.7928 8.32936L9.10189 15.0203C9.03923 15.083 8.95377 15.12 8.86262 15.12C8.77147 15.12 8.68602 15.0858 8.62336 15.0203L5.13973 11.5367C5.07707 11.474 5.04004 11.3886 5.04004 11.2974C5.04004 11.2063 5.07422 11.1208 5.13973 11.0581L6.17656 10.0213C6.23923 9.95866 6.32468 9.92163 6.41583 9.92163C6.50698 9.92163 6.59243 9.95581 6.6551 10.0213L8.86547 12.2317L14.2803 6.8197C14.343 6.75703 14.4284 6.72 14.5196 6.72C14.6107 6.72 14.6962 6.75418 14.7589 6.8197L15.7957 7.85367C15.8584 7.91634 15.8954 8.00179 15.8954 8.09294C15.8954 8.18409 15.8612 8.26954 15.7957 8.33221L15.7928 8.32936Z" fill="white"/>
</svg>
