<svg width="42" height="45" viewBox="0 0 42 45" fill="none" xmlns="http://www.w3.org/2000/svg">
<g clip-path="url(#clip0_359_1161)">
<path d="M41.8766 7.9566C41.4091 6.19432 39.9097 4.43203 37.2109 2.46708C35.0412 0.898644 32.748 -0.00012207 30.9135 -0.00012207C30.5431 -0.00012207 30.2168 0.0351237 29.8816 0.0968037C29.0525 0.264221 28.3117 0.863399 27.853 1.76217C27.2886 2.82835 27.1563 4.2558 27.5179 5.12813C27.6502 5.39248 27.8178 5.72731 28.0206 6.0269C26.2567 7.09308 25.2512 7.39267 25.1189 7.42792C29.714 8.96111 33.5506 12.1508 35.9496 16.3187L35.9849 15.9221C36.0819 14.8207 36.4171 13.5607 36.8845 12.2566C37.352 12.3888 37.8194 12.4592 38.2869 12.4592C39.5217 12.4592 40.5889 11.957 41.2504 11.0582C41.9207 10.1595 42.1853 8.96111 41.8854 7.96542L41.8766 7.9566Z" fill="#5E12A0"/>
<path d="M37.0785 11.2873C40.1126 12.1156 41.3385 9.78937 40.9416 8.22093C40.5094 6.6525 39.1071 5.05763 36.6464 3.2601C34.1768 1.46256 31.6808 0.731214 30.0844 1.06605C28.488 1.40088 28.0206 3.83284 28.4175 4.75804C28.585 5.12812 28.9467 5.65681 29.4494 6.25598C28.8144 6.68774 28.2146 7.02258 27.7207 7.32217C30.79 8.68794 33.4536 10.8203 35.4469 13.4814C35.6762 12.5826 36.0113 11.7808 36.3112 11.0847C36.5405 11.1199 36.8139 11.1816 37.0785 11.2873Z" fill="url(#paint0_radial_359_1161)"/>
<path d="M19.7212 43.8984C30.0051 43.8984 38.3487 35.5716 38.3487 25.2887C38.3487 15.0057 30.0051 6.68774 19.7212 6.68774C9.43727 6.68774 1.10254 15.0234 1.10254 25.2975C1.10254 35.5716 9.43727 43.9072 19.73 43.9072L19.7212 43.8984Z" fill="url(#paint1_radial_359_1161)"/>
<path opacity="0.6" d="M39.4158 6.6878C36.8845 4.02675 34.7502 3.32183 32.1836 2.7579C30.1815 2.29089 30.7195 1.16303 33.1538 1.39213C31.9895 0.995613 30.8871 0.889876 30.0845 1.05729C28.4881 1.39213 28.0206 3.82408 28.4175 4.74928C28.5851 5.11936 28.9467 5.64805 29.4494 6.24723C28.5498 6.84641 27.7825 7.27817 27.1475 7.613C27.4473 7.74517 27.8178 7.91259 28.2499 8.14169C29.3789 8.74086 30.6137 9.73656 30.6137 9.73656C28.7438 8.14169 29.1496 7.41034 31.7161 5.6128C32.5187 5.04887 33.9828 5.11055 35.3499 5.81547C36.717 6.51157 38.3134 8.28267 38.3134 8.28267L36.7787 11.2081L37.0786 11.305C38.0488 11.5693 38.8073 11.5077 39.407 11.2697C40.1038 10.838 41.9383 9.37529 39.407 6.67899L39.4158 6.6878Z" fill="#A98698"/>
<path d="M32.1482 4.36151C32.8185 4.62585 33.6828 5.09285 34.75 5.78896C36.0201 6.61723 37.1138 7.55124 37.8193 8.28259C36.6551 9.81578 35.8878 11.9129 35.4203 13.3756C35.6497 13.7104 35.9231 14.0453 36.1524 14.3713C36.3817 13.543 36.7874 12.3094 37.3166 11.0758C37.4489 11.1111 37.6165 11.1111 37.7841 11.1111C38.181 11.1111 38.6484 11.0406 39.0188 10.741C39.2834 10.5383 39.5833 10.1771 39.548 9.50738C39.548 8.87296 39.0453 8.07993 38.0134 7.11067C37.2813 6.41457 36.2847 5.64798 35.2792 4.94306C32.4128 3.0486 30.4195 2.5111 29.5199 3.40987C28.9201 4.00905 28.9907 4.7404 29.1847 5.27789C28.1175 5.974 27.2179 6.47625 26.6182 6.81108C27.0151 6.94326 27.3855 7.11067 27.7824 7.27809C28.8496 6.71416 30.3842 5.7449 32.1482 4.35269V4.36151ZM38.4455 9.11968C38.5426 9.2871 38.5778 9.45451 38.5778 9.55144C38.5778 9.85103 38.4808 9.94796 38.4103 10.0184C38.278 10.1154 38.0134 10.1859 37.7752 10.1859C37.9781 9.78935 38.2074 9.45451 38.4455 9.11968ZM30.2167 4.15884C30.3137 4.06192 30.5871 3.99143 31.0193 4.06192C30.6841 4.32626 30.349 4.56417 30.0226 4.79327C29.9873 4.56417 30.0226 4.32626 30.2255 4.15884H30.2167Z" fill="#5E12A0"/>
<path d="M19.7211 5.59509C8.82864 5.59509 0 14.4153 0 25.2975C0 36.1796 8.82864 44.9998 19.7211 44.9998C30.6136 44.9998 39.4423 36.1796 39.4423 25.2975C39.4423 14.4153 30.5871 5.59509 19.7211 5.59509ZM19.7211 43.9072C9.42839 43.8984 1.10248 35.5804 1.10248 25.2975C1.10248 15.0145 9.42839 6.68771 19.7211 6.68771C30.0139 6.68771 38.3486 15.0057 38.3486 25.2975C38.3486 35.5892 29.9874 43.9072 19.7211 43.9072Z" fill="#5E12A0"/>
<path opacity="0.6" d="M19.7212 43.8984C30.0051 43.8984 38.3487 35.5716 38.3487 25.2887C38.3487 15.0057 30.0051 6.68774 19.7212 6.68774C9.43727 6.68774 1.10254 15.0234 1.10254 25.2975C1.10254 35.5716 9.43727 43.9072 19.73 43.9072L19.7212 43.8984Z" fill="url(#paint2_linear_359_1161)"/>
<path opacity="0.6" d="M19.5888 41.6427C9.42835 40.0126 2.53125 30.461 4.1982 20.3102C4.93024 15.8164 7.19694 11.9923 10.3985 9.22546C5.73285 11.913 2.26665 16.6094 1.33175 22.3369C-0.299914 32.4877 6.59719 42.0392 16.7223 43.6694C22.3847 44.6034 27.853 42.8411 31.8836 39.3782C28.3204 41.4401 23.9899 42.3388 19.5888 41.6427Z" fill="#A98698"/>
<path opacity="0.6" d="M22.6846 6.95206C17.9836 6.18547 13.4238 7.25165 9.69297 9.61311C9.62241 9.68361 9.56068 9.74529 9.56068 9.74529C10.9895 8.88177 13.0886 8.11517 13.0886 8.11517C7.69087 11.2432 6.02393 14.803 6.02393 14.803C8.12304 10.741 14.2881 7.87726 19.1214 7.68341C23.9546 7.48075 27.1209 8.91701 30.984 12.0098C34.8471 15.1379 37.1844 21.5262 36.9462 26.5839C36.7434 31.6417 34.0798 35.739 34.0798 35.739C35.9143 33.3776 37.008 31.6417 37.7136 29.8794C37.8459 29.3507 37.9781 28.8132 38.0487 28.2493C39.7157 18.1338 32.8538 8.58218 22.6934 6.94325L22.6846 6.95206Z" fill="url(#paint3_linear_359_1161)"/>
<path d="M37.4138 25.1301C37.4138 34.8844 29.4848 42.8059 19.7212 42.8059C9.95768 42.8059 2.0022 34.8844 2.0022 25.1301H37.4138Z" fill="url(#paint4_linear_359_1161)"/>
<g opacity="0.6">
<path opacity="0.6" d="M36.0114 25.1301C36.0114 34.6465 28.4793 42.4358 19.0244 42.8059H19.7212C29.4847 42.8059 37.4137 34.8844 37.4137 25.1301H36.0114Z" fill="url(#paint5_linear_359_1161)"/>
</g>
<g opacity="0.7">
<path opacity="0.7" d="M4.49821 25.1301H2.0022C2.0022 34.8844 9.93122 42.8059 19.6948 42.8059C20.1269 42.8059 20.5238 42.8059 20.9295 42.7706C11.7657 42.101 4.50703 34.4526 4.50703 25.1301H4.49821Z" fill="url(#paint6_linear_359_1161)"/>
</g>
<path d="M37.3783 25.2976C37.3783 23.2709 33.8504 22.099 29.1494 21.7025C25.7538 21.4382 22.3229 21.773 18.3892 22.9713C14.9936 23.967 11.9243 23.7996 9.69287 23.5353C4.72731 22.9713 1.99316 22.9008 1.99316 25.2976C1.99316 28.7605 9.05784 33.0869 19.6505 31.5889C25.0129 30.8223 27.7823 29.2627 30.9486 28.1965C34.3796 27.0687 37.3783 27.0951 37.3783 25.2976Z" fill="url(#paint7_linear_359_1161)"/>
<path d="M25.5158 16.909C27.174 16.909 28.5146 15.5697 28.5146 13.9131C28.5146 12.2566 27.174 10.9172 25.5158 10.9172C23.8577 10.9172 22.5171 12.2566 22.5171 13.9131C22.5171 15.5697 23.8577 16.909 25.5158 16.909Z" fill="white"/>
<path d="M30.4195 19.1383C31.1162 19.1383 31.6895 18.5743 31.6895 17.8694C31.6895 17.1645 31.1251 16.6006 30.4195 16.6006C29.7139 16.6006 29.1494 17.1645 29.1494 17.8694C29.1494 18.5743 29.7139 19.1383 30.4195 19.1383Z" fill="white"/>
<g opacity="0.6">
<path opacity="0.6" d="M34.9442 11.5164H34.8737C34.6708 11.4812 34.5385 11.2873 34.5738 11.0494C34.8737 9.51621 36.1437 8.05351 36.2055 7.98302C36.3378 7.8156 36.6024 7.8156 36.7347 7.94777C36.9022 8.07995 36.9022 8.34429 36.7699 8.47646C36.7347 8.51171 35.5704 9.87748 35.3058 11.208C35.2706 11.4107 35.103 11.5076 34.9354 11.5076L34.9442 11.5164Z" fill="url(#paint8_linear_359_1161)"/>
</g>
<path opacity="0.2" d="M18.4864 39.1755C18.998 39.1755 19.4213 38.7614 19.4213 38.2415C19.4213 37.7216 19.0068 37.3075 18.4864 37.3075C17.966 37.3075 17.5515 37.7216 17.5515 38.2415C17.5515 38.7614 17.966 39.1755 18.4864 39.1755Z" fill="white"/>
<g opacity="0.4">
<path opacity="0.6" d="M17.9572 38.8407C17.5868 38.4706 17.5868 37.8715 17.9572 37.5102C18.0278 37.4397 18.0895 37.4133 18.1601 37.3428C18.0278 37.378 17.9308 37.4397 17.8249 37.5454C17.4545 37.9155 17.4545 38.5147 17.8249 38.876C18.1248 39.1756 18.5923 39.246 18.9539 39.0434C18.6187 39.1756 18.2218 39.1139 17.9572 38.8407Z" fill="url(#paint9_linear_359_1161)"/>
</g>
<path opacity="0.3" d="M18.8215 37.9771C18.9362 37.9771 19.0244 37.889 19.0244 37.7744C19.0244 37.6599 18.9362 37.5718 18.8215 37.5718C18.7069 37.5718 18.6187 37.6599 18.6187 37.7744C18.6187 37.889 18.7069 37.9771 18.8215 37.9771Z" fill="white"/>
<path opacity="0.2" d="M23.3548 38.7085C23.8664 38.7085 24.2897 38.2943 24.2897 37.7745C24.2897 37.2546 23.8752 36.8405 23.3548 36.8405C22.8345 36.8405 22.4199 37.2546 22.4199 37.7745C22.4199 38.2943 22.8345 38.7085 23.3548 38.7085Z" fill="white"/>
<g opacity="0.4">
<path opacity="0.6" d="M22.8169 38.3737C22.4464 38.0036 22.4464 37.4044 22.8169 37.0432C22.8874 36.9727 22.9492 36.9462 23.0197 36.8757C22.8874 36.911 22.7904 36.9727 22.6846 37.0784C22.3141 37.4485 22.3141 38.0477 22.6846 38.4089C22.9844 38.7085 23.4519 38.779 23.8135 38.5763C23.4783 38.7085 23.0815 38.6468 22.8169 38.3737Z" fill="url(#paint10_linear_359_1161)"/>
</g>
<path opacity="0.3" d="M23.6902 37.5102C23.8048 37.5102 23.893 37.4221 23.893 37.3075C23.893 37.193 23.8048 37.1049 23.6902 37.1049C23.5755 37.1049 23.4873 37.193 23.4873 37.3075C23.4873 37.4221 23.5755 37.5102 23.6902 37.5102Z" fill="white"/>
<path opacity="0.2" d="M20.9558 40.8761C21.3439 40.8761 21.6526 40.5589 21.6526 40.18C21.6526 39.8011 21.3351 39.4839 20.9558 39.4839C20.5765 39.4839 20.259 39.8011 20.259 40.18C20.259 40.5589 20.5765 40.8761 20.9558 40.8761Z" fill="white"/>
<g opacity="0.4">
<path opacity="0.6" d="M20.5589 40.603C20.2943 40.3387 20.2943 39.8716 20.5589 39.6073C20.5942 39.5721 20.6559 39.5368 20.6912 39.5104C20.5942 39.5456 20.5236 39.6073 20.4619 39.6778C20.1973 39.9421 20.1973 40.4091 20.4619 40.6735C20.6912 40.9026 21.0263 40.9378 21.3262 40.7704C21.0616 40.8673 20.7617 40.8057 20.5589 40.603Z" fill="url(#paint11_linear_359_1161)"/>
</g>
<path opacity="0.3" d="M21.1853 39.9421C21.2558 39.9421 21.3176 39.8804 21.3176 39.8099C21.3176 39.7394 21.2558 39.6777 21.1853 39.6777C21.1147 39.6777 21.053 39.7394 21.053 39.8099C21.053 39.8804 21.1147 39.9421 21.1853 39.9421Z" fill="white"/>
<path opacity="0.2" d="M25.2512 40.3739C25.6393 40.3739 25.948 40.0567 25.948 39.6778C25.948 39.2989 25.6305 38.9817 25.2512 38.9817C24.872 38.9817 24.5544 39.2989 24.5544 39.6778C24.5544 40.0567 24.872 40.3739 25.2512 40.3739Z" fill="white"/>
<g opacity="0.4">
<path opacity="0.6" d="M24.8543 40.1096C24.5897 39.8452 24.5897 39.3782 24.8543 39.1139C24.8896 39.0786 24.9513 39.0434 24.9866 39.017C24.8896 39.0522 24.819 39.1139 24.7573 39.1844C24.4927 39.4487 24.4927 39.9157 24.7573 40.1801C24.9866 40.4092 25.3218 40.4444 25.6216 40.277C25.357 40.3739 25.0572 40.3123 24.8543 40.1096Z" fill="url(#paint12_linear_359_1161)"/>
</g>
<path opacity="0.3" d="M25.4892 39.4399C25.5598 39.4399 25.6215 39.3782 25.6215 39.3077C25.6215 39.2372 25.5598 39.1755 25.4892 39.1755C25.4187 39.1755 25.3569 39.2372 25.3569 39.3077C25.3569 39.3782 25.4187 39.4399 25.4892 39.4399Z" fill="white"/>
<path opacity="0.2" d="M14.5263 38.8407C15.3731 38.8407 16.061 38.1534 16.061 37.3075C16.061 36.4616 15.3731 35.7743 14.5263 35.7743C13.6796 35.7743 12.9917 36.4616 12.9917 37.3075C12.9917 38.1534 13.6796 38.8407 14.5263 38.8407Z" fill="white"/>
<g opacity="0.4">
<path opacity="0.6" d="M13.6619 38.2767C13.0622 37.6775 13.0622 36.7083 13.6619 36.1091C13.7589 36.0122 13.8648 35.9417 13.9971 35.88C13.7942 35.9505 13.6266 36.0827 13.4679 36.2148C12.8681 36.814 12.8681 37.7833 13.4679 38.3825C13.9706 38.8847 14.7379 38.9816 15.3377 38.6115C14.7732 38.8406 14.1029 38.7437 13.6707 38.2767H13.6619Z" fill="url(#paint13_linear_359_1161)"/>
</g>
<path opacity="0.3" d="M15.0554 36.8494C15.2406 36.8494 15.3905 36.6996 15.3905 36.5145C15.3905 36.3295 15.2406 36.1797 15.0554 36.1797C14.8702 36.1797 14.7202 36.3295 14.7202 36.5145C14.7202 36.6996 14.8702 36.8494 15.0554 36.8494Z" fill="white"/>
<path opacity="0.2" d="M28.2146 35.0782C29.0613 35.0782 29.7492 34.3909 29.7492 33.545C29.7492 32.6991 29.0613 32.0118 28.2146 32.0118C27.3679 32.0118 26.6799 32.6991 26.6799 33.545C26.6799 34.3909 27.3679 35.0782 28.2146 35.0782Z" fill="white"/>
<g opacity="0.4">
<path opacity="0.6" d="M27.315 34.5143C26.7152 33.9151 26.7152 32.9458 27.315 32.3466C27.412 32.2497 27.5178 32.1792 27.6501 32.1176C27.4473 32.188 27.2797 32.3202 27.121 32.4524C26.5212 33.0516 26.5212 34.0208 27.121 34.62C27.6237 35.1223 28.391 35.2192 28.9908 34.8491C28.4263 35.0782 27.7913 34.9813 27.3238 34.5143H27.315Z" fill="url(#paint14_linear_359_1161)"/>
</g>
<path opacity="0.3" d="M28.7526 33.0868C28.9378 33.0868 29.0878 32.937 29.0878 32.7519C29.0878 32.5669 28.9378 32.4171 28.7526 32.4171C28.5674 32.4171 28.4175 32.5669 28.4175 32.7519C28.4175 32.937 28.5674 33.0868 28.7526 33.0868Z" fill="white"/>
</g>
<defs>
<radialGradient id="paint0_radial_359_1161" cx="0" cy="0" r="1" gradientUnits="userSpaceOnUse" gradientTransform="translate(40.8488 7.19528) scale(14.8879 14.8737)">
<stop stop-color="#FFEAFF" stop-opacity="0.6"/>
<stop offset="0.68" stop-color="#A087C9"/>
<stop offset="1" stop-color="#10002F"/>
</radialGradient>
<radialGradient id="paint1_radial_359_1161" cx="0" cy="0" r="1" gradientUnits="userSpaceOnUse" gradientTransform="translate(31.4359 11.0347) scale(36.4347 36.4)">
<stop stop-color="#FFEAFF" stop-opacity="0.6"/>
<stop offset="0.68" stop-color="#A087C9"/>
<stop offset="1" stop-color="#10002F"/>
</radialGradient>
<linearGradient id="paint2_linear_359_1161" x1="16.7489" y1="43.6605" x2="22.6913" y2="6.92387" gradientUnits="userSpaceOnUse">
<stop stop-color="#81FFFF"/>
<stop offset="0.62" stop-color="white" stop-opacity="0"/>
</linearGradient>
<linearGradient id="paint3_linear_359_1161" x1="32.8362" y1="12.6442" x2="17.4502" y2="26.7748" gradientUnits="userSpaceOnUse">
<stop offset="0.29" stop-color="white"/>
<stop offset="0.78" stop-color="white" stop-opacity="0"/>
</linearGradient>
<linearGradient id="paint4_linear_359_1161" x1="2.0022" y1="33.968" x2="37.4138" y2="33.968" gradientUnits="userSpaceOnUse">
<stop stop-color="#0002E9"/>
<stop offset="1" stop-color="#FF00C7"/>
</linearGradient>
<linearGradient id="paint5_linear_359_1161" x1="39.0895" y1="26.6898" x2="19.8443" y2="44.8948" gradientUnits="userSpaceOnUse">
<stop offset="0.29" stop-color="white"/>
<stop offset="0.78" stop-color="white" stop-opacity="0"/>
</linearGradient>
<linearGradient id="paint6_linear_359_1161" x1="2.0022" y1="33.968" x2="20.9207" y2="33.968" gradientUnits="userSpaceOnUse">
<stop stop-color="#000292"/>
<stop offset="1" stop-color="#7D00C7"/>
</linearGradient>
<linearGradient id="paint7_linear_359_1161" x1="2.03726" y1="26.7514" x2="37.3871" y2="26.7514" gradientUnits="userSpaceOnUse">
<stop stop-color="#000292"/>
<stop offset="1" stop-color="#BE00C7"/>
</linearGradient>
<linearGradient id="paint8_linear_359_1161" x1="36.814" y1="7.83323" x2="34.2774" y2="11.9591" gradientUnits="userSpaceOnUse">
<stop offset="0.29" stop-color="white"/>
<stop offset="0.78" stop-color="white" stop-opacity="0"/>
</linearGradient>
<linearGradient id="paint9_linear_359_1161" x1="17.5515" y1="38.2504" x2="18.9627" y2="38.2504" gradientUnits="userSpaceOnUse">
<stop offset="0.29" stop-color="white"/>
<stop offset="0.78" stop-color="white" stop-opacity="0"/>
</linearGradient>
<linearGradient id="paint10_linear_359_1161" x1="22.4111" y1="37.7833" x2="23.8223" y2="37.7833" gradientUnits="userSpaceOnUse">
<stop offset="0.29" stop-color="white"/>
<stop offset="0.78" stop-color="white" stop-opacity="0"/>
</linearGradient>
<linearGradient id="paint11_linear_359_1161" x1="20.2502" y1="40.1889" x2="21.3086" y2="40.1889" gradientUnits="userSpaceOnUse">
<stop offset="0.29" stop-color="white"/>
<stop offset="0.78" stop-color="white" stop-opacity="0"/>
</linearGradient>
<linearGradient id="paint12_linear_359_1161" x1="24.5368" y1="39.6954" x2="25.5952" y2="39.6954" gradientUnits="userSpaceOnUse">
<stop offset="0.29" stop-color="white"/>
<stop offset="0.78" stop-color="white" stop-opacity="0"/>
</linearGradient>
<linearGradient id="paint13_linear_359_1161" x1="13.0004" y1="37.3515" x2="15.3024" y2="37.3515" gradientUnits="userSpaceOnUse">
<stop offset="0.29" stop-color="white"/>
<stop offset="0.78" stop-color="white" stop-opacity="0"/>
</linearGradient>
<linearGradient id="paint14_linear_359_1161" x1="26.6711" y1="33.5979" x2="28.9731" y2="33.5979" gradientUnits="userSpaceOnUse">
<stop offset="0.29" stop-color="white"/>
<stop offset="0.78" stop-color="white" stop-opacity="0"/>
</linearGradient>
<clipPath id="clip0_359_1161">
<rect width="42" height="45" fill="white"/>
</clipPath>
</defs>
</svg>
