<svg width="512" height="512" viewBox="0 0 512 512" fill="none" xmlns="http://www.w3.org/2000/svg">
<circle cx="256.5" cy="255.5" r="246.5" fill="#111111" fill-opacity="0.01"/>
<path d="M494.725 190.718C476.042 149.935 454.255 110.765 429.571 73.5784L421.61 61.6997C411.807 46.9374 398.961 34.6269 384.003 25.6634C369.044 16.6998 352.348 11.308 335.131 9.87995L321.153 8.71068C277.786 5.09644 234.212 5.09644 190.846 8.71068L176.869 9.87995C159.651 11.308 142.957 16.6998 127.998 25.6634C113.039 34.6269 100.192 46.9374 90.39 61.6997L82.4283 73.6847C57.7448 110.871 35.958 150.042 17.2749 190.824L11.2588 203.952C3.84604 220.143 0 237.845 0 255.772C0 273.699 3.84604 291.4 11.2588 307.592L17.2749 320.719C35.958 361.503 57.7448 400.673 82.4283 437.859L90.39 449.844C100.192 464.606 113.039 476.918 127.998 485.881C142.957 494.845 159.651 500.237 176.869 501.664L190.846 502.833C234.212 506.447 277.786 506.447 321.153 502.833L335.131 501.664C352.36 500.218 369.065 494.802 384.023 485.809C398.984 476.817 411.823 464.476 421.61 449.684L429.571 437.699C454.255 400.514 476.042 361.343 494.725 320.56L500.741 307.432C508.152 291.24 512 273.539 512 255.612C512 237.686 508.152 219.984 500.741 203.792L494.725 190.718Z" fill="white"/>
<path d="M494.725 190.718C476.042 149.935 454.255 110.765 429.571 73.5784L421.61 61.6997C411.807 46.9374 398.961 34.6269 384.003 25.6634C369.044 16.6998 352.348 11.308 335.131 9.87995L321.153 8.71068C277.786 5.09644 234.212 5.09644 190.846 8.71068L176.869 9.87995C159.651 11.308 142.957 16.6998 127.998 25.6634C113.039 34.6269 100.192 46.9374 90.39 61.6997L82.4283 73.6847C57.7448 110.871 35.958 150.042 17.2749 190.824L11.2588 203.952C3.84604 220.143 0 237.845 0 255.772C0 273.699 3.84604 291.4 11.2588 307.592L17.2749 320.719C35.958 361.503 57.7448 400.673 82.4283 437.859L90.39 449.844C100.192 464.606 113.039 476.918 127.998 485.881C142.957 494.845 159.651 500.237 176.869 501.664L190.846 502.833C234.212 506.447 277.786 506.447 321.153 502.833L335.131 501.664C352.36 500.218 369.065 494.802 384.023 485.809C398.984 476.817 411.823 464.476 421.61 449.684L429.571 437.699C454.255 400.514 476.042 361.343 494.725 320.56L500.741 307.432C508.152 291.24 512 273.539 512 255.612C512 237.686 508.152 219.984 500.741 203.792L494.725 190.718Z" fill="url(#paint0_radial_110_4)"/>
<path d="M494.725 190.718C476.042 149.935 454.255 110.765 429.571 73.5784L421.61 61.6997C411.807 46.9374 398.961 34.6269 384.003 25.6634C369.044 16.6998 352.348 11.308 335.131 9.87995L321.153 8.71068C277.786 5.09644 234.212 5.09644 190.846 8.71068L176.869 9.87995C159.651 11.308 142.957 16.6998 127.998 25.6634C113.039 34.6269 100.192 46.9374 90.39 61.6997L82.4283 73.6847C57.7448 110.871 35.958 150.042 17.2749 190.824L11.2588 203.952C3.84604 220.143 0 237.845 0 255.772C0 273.699 3.84604 291.4 11.2588 307.592L17.2749 320.719C35.958 361.503 57.7448 400.673 82.4283 437.859L90.39 449.844C100.192 464.606 113.039 476.918 127.998 485.881C142.957 494.845 159.651 500.237 176.869 501.664L190.846 502.833C234.212 506.447 277.786 506.447 321.153 502.833L335.131 501.664C352.36 500.218 369.065 494.802 384.023 485.809C398.984 476.817 411.823 464.476 421.61 449.684L429.571 437.699C454.255 400.514 476.042 361.343 494.725 320.56L500.741 307.432C508.152 291.24 512 273.539 512 255.612C512 237.686 508.152 219.984 500.741 203.792L494.725 190.718Z" fill="url(#paint1_radial_110_4)"/>
<path d="M494.725 190.718C476.042 149.935 454.255 110.765 429.571 73.5784L421.61 61.6997C411.807 46.9374 398.961 34.6269 384.003 25.6634C369.044 16.6998 352.348 11.308 335.131 9.87995L321.153 8.71068C277.786 5.09644 234.212 5.09644 190.846 8.71068L176.869 9.87995C159.651 11.308 142.957 16.6998 127.998 25.6634C113.039 34.6269 100.192 46.9374 90.39 61.6997L82.4283 73.6847C57.7448 110.871 35.958 150.042 17.2749 190.824L11.2588 203.952C3.84604 220.143 0 237.845 0 255.772C0 273.699 3.84604 291.4 11.2588 307.592L17.2749 320.719C35.958 361.503 57.7448 400.673 82.4283 437.859L90.39 449.844C100.192 464.606 113.039 476.918 127.998 485.881C142.957 494.845 159.651 500.237 176.869 501.664L190.846 502.833C234.212 506.447 277.786 506.447 321.153 502.833L335.131 501.664C352.36 500.218 369.065 494.802 384.023 485.809C398.984 476.817 411.823 464.476 421.61 449.684L429.571 437.699C454.255 400.514 476.042 361.343 494.725 320.56L500.741 307.432C508.152 291.24 512 273.539 512 255.612C512 237.686 508.152 219.984 500.741 203.792L494.725 190.718Z" fill="url(#paint2_radial_110_4)"/>
<defs>
<radialGradient id="paint0_radial_110_4" cx="0" cy="0" r="1" gradientUnits="userSpaceOnUse" gradientTransform="translate(88 543.703) rotate(-60.4628) scale(676.486 706.418)">
<stop stop-color="#E411C8"/>
<stop offset="1" stop-color="#E411C8" stop-opacity="0"/>
</radialGradient>
<radialGradient id="paint1_radial_110_4" cx="0" cy="0" r="1" gradientUnits="userSpaceOnUse" gradientTransform="translate(546.5 256.167) rotate(-180) scale(546.5 603.549)">
<stop stop-color="#EF8F00"/>
<stop offset="1" stop-color="#EF0000" stop-opacity="0.01"/>
</radialGradient>
<radialGradient id="paint2_radial_110_4" cx="0" cy="0" r="1" gradientUnits="userSpaceOnUse" gradientTransform="translate(93.5 6.00003) rotate(57.3747) scale(473.9 496.662)">
<stop stop-color="#A0BBFF"/>
<stop offset="1" stop-color="#6EC3F4" stop-opacity="0"/>
</radialGradient>
</defs>
</svg>
